<?xml version="1.0" encoding="utf-8"?>
<!-- Generator: Adobe Illustrator 26.3.1, SVG Export Plug-In . SVG Version: 6.00 Build 0)  -->
<svg version="1.1" id="Layer_1" xmlns="http://www.w3.org/2000/svg" xmlns:xlink="http://www.w3.org/1999/xlink" x="0px" y="0px"
	 width="200px" height="200px" viewBox="0 0 200 200" style="enable-background:new 0 0 200 200;" xml:space="preserve">
<style type="text/css">
	.st0{fill:#FAAF40;}
</style>
<g>
	
		<ellipse transform="matrix(0.2327 -0.9725 0.9725 0.2327 -19.9572 173.5319)" class="st0" cx="100" cy="99.4" rx="42.2" ry="42.2"/>
	<g>
		<path class="st0" d="M100,45.8c-2.9,0-5.3-2.4-5.3-5.3V17.3c0-2.9,2.4-5.3,5.3-5.3c2.9,0,5.3,2.4,5.3,5.3v23.1
			C105.3,43.4,102.9,45.8,100,45.8z"/>
	</g>
	<g>
		<path class="st0" d="M100,188c-2.9,0-5.3-2.4-5.3-5.3v-23.1c0-2.9,2.4-5.3,5.3-5.3c2.9,0,5.3,2.4,5.3,5.3v23.1
			C105.3,185.6,102.9,188,100,188z"/>
	</g>
	<g>
		<path class="st0" d="M182.7,105.3h-23.1c-2.9,0-5.3-2.4-5.3-5.3c0-2.9,2.4-5.3,5.3-5.3h23.1c2.9,0,5.3,2.4,5.3,5.3
			C188,102.9,185.6,105.3,182.7,105.3z"/>
	</g>
	<g>
		<path class="st0" d="M17.3,105.3h23.1c2.9,0,5.3-2.4,5.3-5.3c0-2.9-2.4-5.3-5.3-5.3H17.3c-2.9,0-5.3,2.4-5.3,5.3
			C12,102.9,14.4,105.3,17.3,105.3z"/>
	</g>
	<g>
		<path class="st0" d="M57.9,63.2c-1.4,0-2.7-0.5-3.8-1.6L37.8,45.3c-2.1-2.1-2.1-5.4,0-7.5c2.1-2.1,5.4-2.1,7.5,0l16.4,16.4
			c2.1,2.1,2.1,5.4,0,7.5C60.6,62.7,59.3,63.2,57.9,63.2z"/>
	</g>
	<g>
		<path class="st0" d="M158.5,163.8c-1.4,0-2.7-0.5-3.8-1.6l-16.4-16.4c-2.1-2.1-2.1-5.4,0-7.5c2.1-2.1,5.4-2.1,7.5,0l16.4,16.4
			c2.1,2.1,2.1,5.4,0,7.5C161.2,163.3,159.8,163.8,158.5,163.8z"/>
	</g>
	<g>
		<path class="st0" d="M41.5,163.8c-1.4,0-2.7-0.5-3.8-1.6c-2.1-2.1-2.1-5.4,0-7.5l16.4-16.4c2.1-2.1,5.4-2.1,7.5,0
			c2.1,2.1,2.1,5.4,0,7.5l-16.4,16.4C44.3,163.3,42.9,163.8,41.5,163.8z"/>
	</g>
	<g>
		<path class="st0" d="M142.1,63.2c-1.4,0-2.7-0.5-3.8-1.6c-2.1-2.1-2.1-5.4,0-7.5l16.4-16.4c2.1-2.1,5.4-2.1,7.5,0
			c2.1,2.1,2.1,5.4,0,7.5l-16.4,16.4C144.8,62.7,143.5,63.2,142.1,63.2z"/>
	</g>
</g>
</svg>
