<?xml version="1.0" encoding="utf-8"?>
<!-- Generator: Adobe Illustrator 26.3.1, SVG Export Plug-In . SVG Version: 6.00 Build 0)  -->
<svg version="1.1" id="Layer_1" xmlns="http://www.w3.org/2000/svg" xmlns:xlink="http://www.w3.org/1999/xlink" x="0px" y="0px"
	 width="200px" height="200px" viewBox="0 0 200 200" style="enable-background:new 0 0 200 200;" xml:space="preserve">
<style type="text/css">
	.st0{fill:#82D2EC;}
	.st1{fill:#42BFEC;}
</style>
<g>
	<path class="st0" d="M122.9,68C122.9,68,122.9,68,122.9,68c0-0.3,0-0.6,0-0.9c0-23.9-19.4-43.3-43.3-43.3
		c-23.9,0-43.3,19.4-43.3,43.3c0,0,0,0.1,0,0.1C17.5,68.1,2.6,83.5,2.6,102.5c0,19.5,15.8,35.4,35.4,35.4h85
		c19.3,0,34.9-15.6,34.9-34.9C157.9,83.6,142.2,68,122.9,68z"/>
	<path class="st1" d="M162.5,106.4C162.5,106.4,162.5,106.4,162.5,106.4c0-0.3,0-0.6,0-0.9c0-23.9-19.4-43.3-43.3-43.3
		c-23.9,0-43.3,19.4-43.3,43.3c0,0,0,0.1,0,0.1c-18.8,0.9-33.7,16.3-33.7,35.3c0,19.5,15.8,35.4,35.4,35.4h85
		c19.3,0,34.9-15.6,34.9-34.9C197.4,122,181.8,106.4,162.5,106.4z"/>
</g>
</svg>
