<svg enable-background="new 0 0 56.7 83.2" height="83.2" viewBox="0 0 56.7 83.2" width="56.7" xmlns="http://www.w3.org/2000/svg"><g style="fill:#3c8a74;stroke:#3c8a74;stroke-width:2;stroke-linecap:round;stroke-linejoin:round;stroke-miterlimit:10"><path d="m28.2 82.2c-.1 0-.3 0-.4-.1-.3-.2-.4-.6-.2-1 1.3-2.1 2.6-4.2 3.9-6.2 7.8-12.3 15.8-25.1 20.8-38.8.9-2.4 1.5-4.9 1.7-7.6l.2-2.4c.2-5.1-1-10-3.3-13.7-2.6-4.1-6.5-6.8-11.4-7.7-5.3-1-10.7.4-15 3.9s-6.7 8.6-6.7 14c0 .4-.3.7-.7.7s-.7-.3-.7-.7c0-5.8 2.6-11.3 7.2-15.1s10.5-5.3 16.1-4.2c5.3 1 9.5 3.9 12.3 8.4 2.5 3.9 3.7 9.1 3.5 14.5l-.2 2.4c-.3 2.8-.9 5.4-1.8 7.9-5 13.8-13.1 26.6-20.9 39-1.3 2-2.6 4.1-3.9 6.2 0 .4-.2.5-.5.5zm0 0"/><path d="m28.2 82.2c-.2 0-.5-.1-.6-.3-1.3-2.1-2.6-4.2-3.9-6.2-7.7-12.4-15.8-25.3-20.8-39.1-2.5-6.8-2.5-14.2.1-20.7 2.6-6.7 7.8-12 14.4-14.8.4-.2.8 0 .9.4.2.4 0 .8-.4.9-12.9 5.5-18.8 20-13.7 33.7 5 13.7 13 26.4 20.8 38.8 1.3 2 2.6 4.1 3.9 6.2.2.3.1.8-.2 1-.2.1-.3.1-.5.1zm0 0"/><path d="m28.2 34.3c-6.4 0-11.7-5.2-11.7-11.7 0-.4.3-.7.7-.7s.7.3.7.7c0 5.7 4.6 10.3 10.3 10.3s10.3-4.6 10.3-10.3c0-2.8-1.1-5.4-3.1-7.3-.3-.3-.3-.7 0-1s.7-.3 1 0c2.2 2.2 3.5 5.2 3.5 8.3 0 6.5-5.2 11.7-11.7 11.7zm0 0"/></g></svg>