<?xml version="1.0" encoding="utf-8"?>
<!-- Generator: Adobe Illustrator 26.3.1, SVG Export Plug-In . SVG Version: 6.00 Build 0)  -->
<svg version="1.1" id="Layer_1" xmlns="http://www.w3.org/2000/svg" xmlns:xlink="http://www.w3.org/1999/xlink" x="0px" y="0px"
	 width="56.7px" height="83.2px" viewBox="0 0 56.7 83.2" style="enable-background:new 0 0 56.7 83.2;" xml:space="preserve">
<style type="text/css">
	.st0{fill:#505050;stroke:#505050;stroke-width:2;stroke-linecap:round;stroke-linejoin:round;stroke-miterlimit:10;}
</style>
<g>
	<g>
		<path class="st0" d="M28.2,82.2c-0.1,0-0.3,0-0.4-0.1c-0.3-0.2-0.4-0.6-0.2-1c1.3-2.1,2.6-4.2,3.9-6.2
			c7.8-12.3,15.8-25.1,20.8-38.8c0.9-2.4,1.5-4.9,1.7-7.6l0.2-2.4c0.2-5.1-1-10-3.3-13.7c-2.6-4.1-6.5-6.8-11.4-7.7
			c-5.3-1-10.7,0.4-15,3.9s-6.7,8.6-6.7,14c0,0.4-0.3,0.7-0.7,0.7c-0.4,0-0.7-0.3-0.7-0.7c0-5.8,2.6-11.3,7.2-15.1
			s10.5-5.3,16.1-4.2c5.3,1,9.5,3.9,12.3,8.4c2.5,3.9,3.7,9.1,3.5,14.5l0,0l-0.2,2.4c-0.3,2.8-0.9,5.4-1.8,7.9
			c-5,13.8-13.1,26.6-20.9,39c-1.3,2-2.6,4.1-3.9,6.2C28.7,82.1,28.5,82.2,28.2,82.2L28.2,82.2z"/>
		<path class="st0" d="M28.2,82.2c-0.2,0-0.5-0.1-0.6-0.3c-1.3-2.1-2.6-4.2-3.9-6.2C16,63.3,7.9,50.4,2.9,36.6
			C0.4,29.8,0.4,22.4,3,15.9c2.6-6.7,7.8-12,14.4-14.8c0.4-0.2,0.8,0,0.9,0.4c0.2,0.4,0,0.8-0.4,0.9C5,7.9-0.9,22.4,4.2,36.1
			c5,13.7,13,26.4,20.8,38.8c1.3,2,2.6,4.1,3.9,6.2c0.2,0.3,0.1,0.8-0.2,1C28.5,82.2,28.4,82.2,28.2,82.2L28.2,82.2z"/>
	</g>
	<path class="st0" d="M28.2,34.3c-6.4,0-11.7-5.2-11.7-11.7c0-0.4,0.3-0.7,0.7-0.7c0.4,0,0.7,0.3,0.7,0.7c0,5.7,4.6,10.3,10.3,10.3
		s10.3-4.6,10.3-10.3c0-2.8-1.1-5.4-3.1-7.3c-0.3-0.3-0.3-0.7,0-1s0.7-0.3,1,0c2.2,2.2,3.5,5.2,3.5,8.3
		C39.9,29.1,34.7,34.3,28.2,34.3L28.2,34.3z"/>
</g>
</svg>
