<?xml version="1.0" encoding="utf-8"?>
<!-- Generator: Adobe Illustrator 26.3.1, SVG Export Plug-In . SVG Version: 6.00 Build 0)  -->
<svg version="1.1" id="Layer_1" xmlns="http://www.w3.org/2000/svg" xmlns:xlink="http://www.w3.org/1999/xlink" x="0px" y="0px"
	 width="200px" height="200px" viewBox="0 0 200 200" style="enable-background:new 0 0 200 200;" xml:space="preserve">
<style type="text/css">
	.st0{fill:#FAAF40;}
	.st1{fill:#42BFEC;}
</style>
<g>
	<ellipse transform="matrix(0.7071 -0.7071 0.7071 0.7071 -46.2435 78.3362)" class="st0" cx="71.4" cy="95" rx="33.5" ry="33.5"/>
	<g>
		<path class="st0" d="M71.4,52.4c-2.3,0-4.2-1.9-4.2-4.2V29.9c0-2.3,1.9-4.2,4.2-4.2c2.3,0,4.2,1.9,4.2,4.2v18.4
			C75.7,50.6,73.8,52.4,71.4,52.4z"/>
	</g>
	<g>
		<path class="st0" d="M24.2,99.7H5.8c-2.3,0-4.2-1.9-4.2-4.2c0-2.3,1.9-4.2,4.2-4.2h18.4c2.3,0,4.2,1.9,4.2,4.2
			C28.4,97.8,26.5,99.7,24.2,99.7z"/>
	</g>
	<g>
		<path class="st0" d="M38,66.3c-1.1,0-2.2-0.4-3-1.2l-13-13c-1.6-1.6-1.6-4.3,0-6c1.6-1.6,4.3-1.6,6,0l13,13c1.6,1.6,1.6,4.3,0,6
			C40.2,65.9,39.1,66.3,38,66.3z"/>
	</g>
	<g>
		<path class="st0" d="M25.1,146.1c-1.1,0-2.2-0.4-3-1.2c-1.6-1.6-1.6-4.3,0-6l13-13c1.6-1.6,4.3-1.6,6,0c1.6,1.6,1.6,4.3,0,6
			l-13,13C27.2,145.6,26.1,146.1,25.1,146.1z"/>
	</g>
	<g>
		<path class="st0" d="M104.8,66.3c-1.1,0-2.2-0.4-3-1.2c-1.6-1.6-1.6-4.3,0-6l13-13c1.6-1.6,4.3-1.6,6,0c1.6,1.6,1.6,4.3,0,6
			l-13,13C107,65.9,105.9,66.3,104.8,66.3z"/>
	</g>
	<path class="st1" d="M164.6,108C164.6,108,164.6,108,164.6,108c0-0.3,0-0.6,0-0.8c0-22.4-18.2-40.6-40.6-40.6
		c-22.4,0-40.6,18.2-40.6,40.6c0,0,0,0.1,0,0.1c-17.6,0.8-31.6,15.3-31.6,33.1c0,18.3,14.8,33.2,33.2,33.2h79.7
		c18.1,0,32.7-14.7,32.7-32.7C197.4,122.7,182.7,108,164.6,108z"/>
</g>
</svg>
