<?xml version="1.0" encoding="utf-8"?>
<!-- Generator: Adobe Illustrator 26.3.1, SVG Export Plug-In . SVG Version: 6.00 Build 0)  -->
<svg version="1.1" id="Layer_1" xmlns="http://www.w3.org/2000/svg" xmlns:xlink="http://www.w3.org/1999/xlink" x="0px" y="0px"
	 width="200px" height="200px" viewBox="0 0 200 200" style="enable-background:new 0 0 200 200;" xml:space="preserve">
<style type="text/css">
	.st0{fill:#42BFEC;}
	.st1{fill:#ADE0F3;}
</style>
<g>
	<path class="st0" d="M147.8,65.6C147.8,65.6,147.8,65.6,147.8,65.6c0-0.3,0-0.7,0-1c0-26.8-21.7-48.5-48.5-48.5
		c-26.8,0-48.5,21.7-48.5,48.5c0,0,0,0.1,0,0.1c-21,1-37.8,18.3-37.8,39.5c0,21.9,17.7,39.6,39.6,39.6h95.1
		c21.6,0,39.1-17.5,39.1-39.1C186.9,83.1,169.4,65.6,147.8,65.6z"/>
	<path class="st1" d="M72.6,125.5L57.3,158c-3.4,7.2-3.5,15.6,0.3,22.5c2.7,4.9,7.2,9.1,15.1,9.1s12.4-4.2,15.1-9.1
		c3.8-7,3.6-15.4,0.3-22.5L72.6,125.5z"/>
	<path class="st1" d="M123.1,103.1l-15.3,32.5c-3.4,7.2-3.5,15.6,0.3,22.5c2.7,4.9,7.2,9.1,15.1,9.1s12.4-4.2,15.1-9.1
		c3.8-7,3.6-15.4,0.3-22.5L123.1,103.1z"/>
</g>
</svg>
