<?xml version="1.0" encoding="utf-8"?>
<!-- Generator: Adobe Illustrator 26.3.1, SVG Export Plug-In . SVG Version: 6.00 Build 0)  -->
<svg version="1.1" id="Layer_1" xmlns="http://www.w3.org/2000/svg" xmlns:xlink="http://www.w3.org/1999/xlink" x="0px" y="0px"
	 width="200px" height="200px" viewBox="0 0 200 200" style="enable-background:new 0 0 200 200;" xml:space="preserve">
<style type="text/css">
	.st0{fill:#ADE0F3;}
	.st1{fill:#42BFEC;}
	.st2{fill:#FAAF40;}
</style>
<g>
	<path class="st0" d="M130.1,131.5l-11.1,23.6c-2.4,5.2-2.5,11.3,0.2,16.3c1.9,3.6,5.2,6.6,10.9,6.6c5.7,0,9-3.1,10.9-6.6
		c2.7-5,2.6-11.1,0.2-16.3L130.1,131.5z"/>
	<path class="st1" d="M143,49.4C143,49.4,142.9,49.4,143,49.4c0-0.3,0-0.6,0-0.9c0-24.1-19.5-43.6-43.6-43.6
		c-24.1,0-43.6,19.5-43.6,43.6c0,0,0,0.1,0,0.1C36.9,49.5,21.9,65,21.9,84.1c0,19.7,15.9,35.6,35.6,35.6H143
		c19.4,0,35.2-15.7,35.2-35.2C178.1,65.1,162.4,49.4,143,49.4z"/>
	<polygon class="st2" points="130.1,109 86.8,109 108.8,70 86.8,70 55.7,126 89.3,126 75.8,176.8 	"/>
</g>
</svg>
