<?xml version="1.0" encoding="utf-8"?>
<!-- Generator: Adobe Illustrator 26.3.1, SVG Export Plug-In . SVG Version: 6.00 Build 0)  -->
<svg version="1.1" id="Layer_1" xmlns="http://www.w3.org/2000/svg" xmlns:xlink="http://www.w3.org/1999/xlink" x="0px" y="0px"
	 width="200px" height="200px" viewBox="0 0 200 200" style="enable-background:new 0 0 200 200;" xml:space="preserve">
<style type="text/css">
	.st0{fill:#42BFEC;}
	.st1{fill:#ADE0F3;}
</style>
<g>
	<path class="st0" d="M103.4,50.2C103.4,50.2,103.3,50.2,103.4,50.2c0-0.3,0-0.5,0-0.8c0-20-16.2-36.3-36.3-36.3
		c-20,0-36.3,16.2-36.3,36.3c0,0,0,0,0,0.1C15.2,50.2,2.6,63.1,2.6,79c0,16.4,13.3,29.6,29.6,29.6h71.1c16.1,0,29.2-13.1,29.2-29.2
		C132.6,63.3,119.5,50.2,103.4,50.2z"/>
	<g>
		<path class="st1" d="M179.7,78.2h-58.5c-2.8,0-5-2.2-5-5c0-2.8,2.2-5,5-5h58.5c4.2,0,7.6-3.4,7.6-7.6c0-4.2-3.4-7.6-7.6-7.6h-7.4
			c-2.8,0-5-2.2-5-5c0-2.8,2.2-5,5-5h7.4c9.7,0,17.6,7.9,17.6,17.6C197.4,70.3,189.4,78.2,179.7,78.2z"/>
	</g>
	<g>
		<path class="st1" d="M160.6,138.4c-12.4,0-22.5-10.1-22.5-22.5c0-8.5,6.9-15.4,15.4-15.4c8.5,0,15.4,6.9,15.4,15.4v2.6
			c0,2.8-2.2,5-5,5c-2.8,0-5-2.2-5-5v-2.6c0-2.9-2.4-5.3-5.3-5.3c-2.9,0-5.3,2.4-5.3,5.3c0,6.9,5.6,12.4,12.4,12.4
			c6.9,0,12.4-5.6,12.4-12.4v-5.1c0-9.4-7.6-17-17-17H77.2c-2.8,0-5-2.2-5-5s2.2-5,5-5h78.9c14.9,0,27.1,12.1,27.1,27.1v5.1
			C183.1,128.3,173,138.4,160.6,138.4z"/>
	</g>
</g>
</svg>
